<svg width="57" height="51" viewBox="0 0 57 51" fill="none" xmlns="http://www.w3.org/2000/svg">
<path d="M56.2312 42.3245L33.4841 2.92362C32.4592 1.1486 30.5494 0.0458984 28.4995 0.0458984C26.4497 0.0458984 24.5416 1.1486 23.5175 2.92362L0.768665 42.3228C-0.256222 44.0978 -0.256222 46.3023 0.768665 48.0773C1.79355 49.8523 3.70261 50.9542 5.75149 50.9542H51.2484C53.2974 50.9542 55.2081 49.8524 56.2313 48.0773C57.2562 46.3023 57.2562 44.0978 56.2312 42.3245ZM28.5004 44.4745C26.5334 44.4745 24.9364 42.8792 24.9364 40.9116C24.9364 38.9446 26.5334 37.3494 28.5004 37.3494C30.4672 37.3494 32.0626 38.9446 32.0626 40.9116C32.0626 42.8793 30.4672 44.4745 28.5004 44.4745ZM30.6953 33.0716C30.6953 34.284 29.7119 35.2658 28.5004 35.2658C27.2871 35.2658 26.3053 34.2841 26.3053 33.0716L24.9364 16.9598C24.9364 14.9919 26.5334 13.3967 28.5004 13.3967C30.4672 13.3967 32.0626 14.992 32.0626 16.9598L30.6953 33.0716Z" fill="#B45D35"/>
</svg>
