<svg width="45" height="50" viewBox="0 0 45 50" fill="none" xmlns="http://www.w3.org/2000/svg">
<g clip-path="url(#clip0_86_80048)">
<path d="M15.9359 44.8533C16.4859 47.8357 19.2459 50 22.4986 50C25.752 50 28.5129 47.8357 29.0628 44.8533L29.0964 44.6716H15.9023L15.9359 44.8533Z" fill="black"/>
<path d="M44.9512 36.3262C44.4128 35.8254 43.8643 35.402 43.3337 34.9921C41.1018 33.2687 39.1741 31.7804 39.1741 25.6007V20.6989C39.1741 13.4911 33.7281 7.1665 26.1928 5.58076C26.4948 5.02998 26.6479 4.45107 26.6479 3.85664C26.6479 1.73027 24.7871 0 22.4996 0C20.2127 0 18.3522 1.73027 18.3522 3.85664C18.3522 4.45147 18.5051 5.03027 18.8073 5.58076C11.2717 7.1665 5.826 13.4911 5.826 20.6989V25.6007C5.826 31.7804 3.89829 33.2687 1.66643 34.9921C1.13588 35.4019 0.587263 35.8254 0.0489386 36.3262L0 36.3717V41.2348H45V36.3717L44.9512 36.3262Z" fill="black"/>
</g>
<defs>
<clipPath id="clip0_86_80048">
<rect width="45" height="50" fill="white"/>
</clipPath>
</defs>
</svg>
