<svg width="57" height="57" viewBox="0 0 57 57" fill="none" xmlns="http://www.w3.org/2000/svg">
<g clip-path="url(#clip0_86_80014)">
<path d="M30.5854 23.352C30.5854 21.8288 29.6517 20.594 28.5001 20.594C27.3484 20.594 26.4147 21.8288 26.4147 23.352H30.5854ZM28.5001 54.2419H26.4147C26.4147 55.1572 26.7578 56.0125 27.3309 56.5259C27.9039 57.0389 28.6321 57.1426 29.2744 56.8028L28.5001 54.2419ZM47.9635 43.9452L48.7379 46.5062C49.5298 46.0873 50.0489 45.0731 50.0489 43.9452H47.9635ZM50.0489 22.5393C50.0489 21.0161 49.1152 19.7813 47.9635 19.7813C46.8118 19.7813 45.8781 21.0161 45.8781 22.5393H50.0489ZM29.7618 21.1562C28.8448 20.2345 27.5366 20.4705 26.8398 21.6832C26.1428 22.896 26.3213 24.6262 27.2383 25.5478L29.7618 21.1562ZM35.4513 30.339L34.1895 32.5347C34.8082 33.157 35.6373 33.2721 36.3405 32.8337L35.4513 30.339ZM48.8527 25.034C49.8943 24.3846 50.3408 22.7412 49.8498 21.3633C49.3588 19.9856 48.1162 19.3951 47.0743 20.0445L48.8527 25.034ZM27.7257 20.7912C26.6563 21.357 26.1361 22.9622 26.5637 24.3761C26.9916 25.7905 28.2053 26.4785 29.2744 25.9129L27.7257 20.7912ZM48.7379 15.6161C49.8073 15.0504 50.3275 13.4453 49.8998 12.0311C49.4719 10.6168 48.2582 9.92892 47.1891 10.4946L48.7379 15.6161ZM47.1891 15.6161C48.2582 16.1818 49.4719 15.4939 49.8998 14.0797C50.3275 12.6654 49.8073 11.0603 48.7379 10.4946L47.1891 15.6161ZM29.2744 0.197987C28.2053 -0.367702 26.9916 0.320186 26.5637 1.73446C26.1361 3.1487 26.6563 4.7538 27.7257 5.31953L29.2744 0.197987ZM48.9826 10.649C47.9774 9.90472 46.7067 10.3788 46.144 11.7078C45.5812 13.0368 45.9396 14.7175 46.9445 15.4618L48.9826 10.649ZM54.9147 18.2037L55.8042 20.6982C56.5105 20.2577 56.9715 19.3321 56.9987 18.3C57.026 17.2678 56.615 16.3019 55.9338 15.7973L54.9147 18.2037ZM47.0743 20.0445C46.0325 20.6942 45.5862 22.3382 46.0775 23.7157C46.5685 25.0936 47.8111 25.6838 48.8527 25.034L47.0743 20.0445ZM8.26212 10.4946C7.19277 11.0603 6.67265 12.6654 7.10038 14.0797C7.52813 15.4939 8.74176 16.1818 9.81108 15.6161L8.26212 10.4946ZM29.2744 5.31953C30.3438 4.7538 30.864 3.1487 30.4364 1.73446C30.0085 0.320186 28.7948 -0.367702 27.7257 0.197987L29.2744 5.31953ZM10.0555 15.4618C11.0604 14.7175 11.4188 13.0368 10.8561 11.7078C10.2934 10.3788 9.02256 9.90472 8.01769 10.649L10.0555 15.4618ZM2.08537 18.2037L1.06646 15.7973C0.385097 16.3019 -0.0259986 17.2678 0.00127802 18.3C0.0285269 19.3321 0.489533 20.2577 1.19586 20.6982L2.08537 18.2037ZM8.14709 25.0337C9.18878 25.6834 10.4315 25.0936 10.9228 23.7157C11.414 22.3382 10.9678 20.6945 9.92611 20.0448L8.14709 25.0337ZM9.81108 10.4946C8.74176 9.92892 7.52813 10.6168 7.10038 12.0311C6.67265 13.4453 7.19277 15.0504 8.26212 15.6161L9.81108 10.4946ZM27.7257 25.9129C28.7948 26.4785 30.0085 25.7905 30.4364 24.3761C30.864 22.9622 30.3438 21.357 29.2744 20.7912L27.7257 25.9129ZM30.5854 23.352C30.5854 21.8288 29.6517 20.594 28.5001 20.594C27.3484 20.594 26.4147 21.8288 26.4147 23.352H30.5854ZM28.5001 54.2419L27.7257 56.8028C28.368 57.1426 29.0962 57.0389 29.6693 56.5259C30.2423 56.0125 30.5854 55.1572 30.5854 54.2419H28.5001ZM9.0366 43.9452H6.95123C6.95123 45.0731 7.47038 46.0873 8.26212 46.5062L9.0366 43.9452ZM11.122 22.5393C11.122 21.0161 10.1883 19.7813 9.0366 19.7813C7.88489 19.7813 6.95123 21.0161 6.95123 22.5393H11.122ZM29.7618 25.5478C30.6789 24.6262 30.8574 22.896 30.1603 21.6832C29.4635 20.4705 28.1553 20.2345 27.2383 21.1562L29.7618 25.5478ZM21.5488 30.339L20.6597 32.8337C21.3628 33.2721 22.1918 33.157 22.8106 32.5347L21.5488 30.339ZM9.92611 20.0448C8.88432 19.3953 7.64129 19.9856 7.15026 21.3633C6.65922 22.7412 7.1053 24.3842 8.14709 25.0337L9.92611 20.0448ZM26.4147 23.352V54.2419H30.5854V23.352H26.4147ZM29.2744 56.8028L48.7379 46.5062L47.1891 41.3843L27.7257 51.681L29.2744 56.8028ZM50.0489 43.9452V22.5393H45.8781V43.9452H50.0489ZM27.2383 25.5478L34.1895 32.5347L36.7131 28.1432L29.7618 21.1562L27.2383 25.5478ZM36.3405 32.8337L48.8527 25.034L47.0743 20.0445L34.5621 27.8443L36.3405 32.8337ZM29.2744 25.9129L48.7379 15.6161L47.1891 10.4946L27.7257 20.7912L29.2744 25.9129ZM48.7379 10.4946L29.2744 0.197987L27.7257 5.31953L47.1891 15.6161L48.7379 10.4946ZM46.9445 15.4618L53.8957 20.6101L55.9338 15.7973L48.9826 10.649L46.9445 15.4618ZM54.0253 15.7091L47.0743 20.0445L48.8527 25.034L55.8042 20.6982L54.0253 15.7091ZM9.81108 15.6161L29.2744 5.31953L27.7257 0.197987L8.26212 10.4946L9.81108 15.6161ZM8.01769 10.649L1.06646 15.7973L3.10428 20.6101L10.0555 15.4618L8.01769 10.649ZM1.19586 20.6982L8.14709 25.0337L9.92611 20.0448L2.97488 15.7091L1.19586 20.6982ZM8.26212 15.6161L27.7257 25.9129L29.2744 20.7912L9.81108 10.4946L8.26212 15.6161ZM26.4147 23.352V54.2419H30.5854V23.352H26.4147ZM29.2744 51.681L9.81108 41.3843L8.26212 46.5062L27.7257 56.8028L29.2744 51.681ZM11.122 43.9452V22.5393H6.95123V43.9452H11.122ZM27.2383 21.1562L20.287 28.1432L22.8106 32.5347L29.7618 25.5478L27.2383 21.1562ZM22.4379 27.8443L9.92611 20.0448L8.14709 25.0337L20.6597 32.8337L22.4379 27.8443Z" fill="#B45D35"/>
</g>
<defs>
<clipPath id="clip0_86_80014">
<path d="M0 28.5C0 12.7599 12.7599 0 28.5 0C44.2401 0 57 12.7599 57 28.5C57 44.2401 44.2401 57 28.5 57C12.7599 57 0 44.2401 0 28.5Z" fill="white"/>
</clipPath>
</defs>
</svg>
