<svg width="57" height="57" viewBox="0 0 57 57" fill="none" xmlns="http://www.w3.org/2000/svg">
<path d="M52.25 40.375V49.875C52.25 50.5049 51.9998 51.109 51.5544 51.5544C51.109 51.9998 50.5049 52.25 49.875 52.25H40.375C39.7451 52.25 39.141 51.9998 38.6956 51.5544C38.2502 51.109 38 50.5049 38 49.875V40.375C38 39.7451 38.2502 39.141 38.6956 38.6956C39.141 38.2502 39.7451 38 40.375 38H42.75V34.4375C42.75 34.1226 42.6249 33.8205 42.4022 33.5978C42.1795 33.3751 41.8774 33.25 41.5625 33.25H15.4375C15.1226 33.25 14.8205 33.3751 14.5978 33.5978C14.3751 33.8205 14.25 34.1226 14.25 34.4375V38H16.625C17.2549 38 17.859 38.2502 18.3044 38.6956C18.7498 39.141 19 39.7451 19 40.375V49.875C19 50.5049 18.7498 51.109 18.3044 51.5544C17.859 51.9998 17.2549 52.25 16.625 52.25H7.125C6.49511 52.25 5.89102 51.9998 5.44562 51.5544C5.00022 51.109 4.75 50.5049 4.75 49.875V40.375C4.75 39.7451 5.00022 39.141 5.44562 38.6956C5.89102 38.2502 6.49511 38 7.125 38H9.5V30.875C9.5 30.2451 9.75022 29.641 10.1956 29.1956C10.641 28.7502 11.2451 28.5 11.875 28.5H26.125V21.375H21.375C20.7451 21.375 20.141 21.1248 19.6956 20.6794C19.2502 20.234 19 19.6299 19 19V7.125C19 6.49511 19.2502 5.89102 19.6956 5.44562C20.141 5.00022 20.7451 4.75 21.375 4.75H35.625C36.2549 4.75 36.859 5.00022 37.3044 5.44562C37.7498 5.89102 38 6.49511 38 7.125V19C38 19.6299 37.7498 20.234 37.3044 20.6794C36.859 21.1248 36.2549 21.375 35.625 21.375H30.875V28.5H45.125C45.7549 28.5 46.359 28.7502 46.8044 29.1956C47.2498 29.641 47.5 30.2451 47.5 30.875V38H49.875C50.5049 38 51.109 38.2502 51.5544 38.6956C51.9998 39.141 52.25 39.7451 52.25 40.375Z" fill="#B45D35"/>
</svg>
