<svg width="30" height="30" viewBox="0 0 30 30" fill="none" xmlns="http://www.w3.org/2000/svg">
<path d="M4.41218 3.08709C4.04606 2.72097 3.45247 2.72097 3.08635 3.08709C2.72024 3.4532 2.72024 4.0468 3.08635 4.41291L25.5864 26.9129C25.9525 27.279 26.5461 27.279 26.9122 26.9129C27.2783 26.5468 27.2783 25.9532 26.9122 25.5871L4.41218 3.08709Z" fill="black"/>
<path d="M28.3441 15.6916C27.6641 17.7359 26.5275 19.5719 25.0552 21.0784L21.182 17.2053C21.4279 16.5161 21.5618 15.7737 21.5618 15C21.5618 11.3756 18.6236 8.4375 14.9993 8.4375C14.2256 8.4375 13.4832 8.57138 12.794 8.81724L9.69799 5.72124C11.3341 5.05477 13.124 4.6875 14.9999 4.6875C21.2128 4.6875 26.4823 8.71589 28.3437 14.3006C28.4941 14.7519 28.4943 15.2402 28.3441 15.6916Z" fill="black"/>
<path d="M19.6868 15C19.6868 15.2252 19.6709 15.4467 19.6402 15.6634L14.3358 10.3591C14.5526 10.3284 14.7741 10.3125 14.9993 10.3125C17.5881 10.3125 19.6868 12.4112 19.6868 15Z" fill="black"/>
<path d="M15.6627 19.6409L10.3584 14.3366C10.3276 14.5533 10.3118 14.7748 10.3118 15C10.3118 17.5888 12.4104 19.6875 14.9993 19.6875C15.2245 19.6875 15.446 19.6716 15.6627 19.6409Z" fill="black"/>
<path d="M8.43677 15C8.43677 14.2263 8.57065 13.4839 8.8165 12.7947L4.94292 8.92113C3.47035 10.4278 2.33361 12.2639 1.65353 14.3084C1.50337 14.7598 1.50351 15.2481 1.65394 15.6994C3.51531 21.2841 8.78486 25.3125 14.9977 25.3125C16.8739 25.3125 18.664 24.9451 20.3003 24.2785L17.2046 21.1828C16.5153 21.4286 15.7729 21.5625 14.9993 21.5625C11.3749 21.5625 8.43677 18.6244 8.43677 15Z" fill="black"/>
</svg>
