<svg width="30" height="30" viewBox="0 0 30 30" fill="none" xmlns="http://www.w3.org/2000/svg">
<path d="M27.1639 2.83606C25.8825 1.55465 23.805 1.55465 22.5236 2.83606L21.0771 4.28249L25.7175 8.92288L27.1639 7.47645C28.4454 6.19504 28.4454 4.11746 27.1639 2.83606Z" fill="black"/>
<path d="M24.3917 10.2487L19.7513 5.60832L9.25024 16.1094C8.47926 16.8804 7.91252 17.8313 7.60124 18.8763L6.60152 22.2323C6.50324 22.5623 6.59368 22.9195 6.83709 23.1629C7.0805 23.4063 7.43774 23.4967 7.76765 23.3985L11.1238 22.3987C12.1687 22.0875 13.1197 21.5207 13.8906 20.7497L24.3917 10.2487Z" fill="black"/>
<path d="M6.5625 6.56249C4.49143 6.56249 2.8125 8.24142 2.8125 10.3125V23.4375C2.8125 25.5086 4.49143 27.1875 6.5625 27.1875H19.6875C21.7586 27.1875 23.4375 25.5086 23.4375 23.4375V16.875C23.4375 16.3572 23.0178 15.9375 22.5 15.9375C21.9822 15.9375 21.5625 16.3572 21.5625 16.875V23.4375C21.5625 24.473 20.723 25.3125 19.6875 25.3125H6.5625C5.52697 25.3125 4.6875 24.473 4.6875 23.4375V10.3125C4.6875 9.27696 5.52697 8.43749 6.5625 8.43749H13.125C13.6428 8.43749 14.0625 8.01776 14.0625 7.49999C14.0625 6.98222 13.6428 6.56249 13.125 6.56249H6.5625Z" fill="black"/>
</svg>
