<svg width="159" height="159" viewBox="0 0 159 159" fill="none" xmlns="http://www.w3.org/2000/svg">
<path d="M34.4422 0C15.5446 0 0 15.5446 0 34.4422V124.522C0 143.419 15.5446 158.964 34.4422 158.964H79.9C97.4537 158.964 112.106 145.549 114.102 128.496H92.5794C90.9596 133.97 86.0269 137.769 79.9 137.769H34.4422C26.9201 137.769 21.1952 132.044 21.1952 124.522V34.4422C21.1952 26.9201 26.9201 21.1952 34.4422 21.1952H79.9C86.0269 21.1952 90.9596 24.9944 92.5794 30.4681H114.102C112.106 13.4147 97.4537 0 79.9 0H34.4422Z" fill="#CC7139"/>
<path d="M126.34 47.6895C124.949 47.6894 123.57 47.9635 122.285 48.496C120.999 49.0285 119.83 49.8091 118.846 50.7932C117.862 51.7773 117.082 52.9456 116.549 54.2314C116.016 55.5172 115.742 56.8953 115.742 58.2871C115.742 59.6788 116.016 61.0569 116.549 62.3427C117.082 63.6285 117.862 64.7968 118.846 65.7809L121.95 68.8847H43.3779C40.5672 68.8847 37.8717 70.0012 35.8842 71.9886C33.8968 73.9761 32.7803 76.6716 32.7803 79.4823C32.7803 82.2929 33.8968 84.9885 35.8842 86.9759C37.8717 88.9633 40.5672 90.0799 43.3779 90.0799H121.95L118.846 93.1836C117.862 94.1677 117.082 95.336 116.549 96.6218C116.016 97.9076 115.742 99.2857 115.742 100.677C115.742 102.069 116.016 103.447 116.549 104.733C117.082 106.019 117.862 107.187 118.846 108.171C119.83 109.155 120.999 109.936 122.285 110.469C123.57 111.001 124.948 111.276 126.34 111.276C127.732 111.276 129.11 111.001 130.396 110.469C131.682 109.936 132.85 109.155 133.834 108.171L153.119 88.8861C154.866 88.0098 156.336 86.6677 157.367 85.0082C158.399 83.3486 158.951 81.4362 158.964 79.4823C158.962 77.4984 158.402 75.555 157.35 73.8734C156.297 72.1917 154.794 70.8392 153.011 69.9698L133.834 50.7932C132.85 49.8091 131.682 49.0285 130.396 48.496C129.11 47.9635 127.732 47.6894 126.34 47.6895Z" fill="#1F3750"/>
</svg>
