<svg width="190" height="190" viewBox="0 0 190 190" fill="none" xmlns="http://www.w3.org/2000/svg">
<path d="M95 29.6875C154.375 29.6875 190 95 190 95C190 95 154.375 160.312 95 160.312C35.625 160.312 0 95 0 95C0 95 35.625 29.6875 95 29.6875ZM95 41.5625C53.2 41.5625 23.7262 80.1681 13.9531 95C23.7144 109.82 53.1881 148.438 95 148.438C136.8 148.438 166.274 109.832 176.047 95C166.286 80.18 136.812 41.5625 95 41.5625ZM95 53.4375C106.023 53.4375 116.595 57.8164 124.389 65.6109C132.184 73.4054 136.562 83.9769 136.562 95C136.562 106.023 132.184 116.595 124.389 124.389C116.595 132.184 106.023 136.562 95 136.562C83.9769 136.562 73.4054 132.184 65.6109 124.389C57.8164 116.595 53.4375 106.023 53.4375 95C53.4375 83.9769 57.8164 73.4054 65.6109 65.6109C73.4054 57.8164 83.9769 53.4375 95 53.4375ZM95 65.3125C87.1293 65.3219 79.5836 68.4527 74.0182 74.0182C68.4527 79.5836 65.3219 87.1293 65.3125 95C65.3125 111.364 78.6244 124.688 95 124.688C111.376 124.688 124.688 111.364 124.688 95C124.688 78.6362 111.376 65.3125 95 65.3125Z" fill="#233D58"/>
</svg>
