<svg width="37" height="37" viewBox="0 0 37 37" fill="none" xmlns="http://www.w3.org/2000/svg">
<path fill-rule="evenodd" clip-rule="evenodd" d="M15.6875 3.03125C8.69765 3.03125 3.03125 8.69765 3.03125 15.6875C3.03125 22.6774 8.69765 28.3438 15.6875 28.3438C19.1828 28.3438 22.3449 26.9287 24.6368 24.6368C26.9287 22.3449 28.3438 19.1828 28.3438 15.6875C28.3438 8.69765 22.6774 3.03125 15.6875 3.03125ZM0.21875 15.6875C0.21875 7.14435 7.14435 0.21875 15.6875 0.21875C24.2307 0.21875 31.1562 7.14435 31.1562 15.6875C31.1562 19.4522 29.81 22.9045 27.5749 25.5861L36.3694 34.3806C36.9185 34.9298 36.9185 35.8202 36.3694 36.3694C35.8202 36.9185 34.9298 36.9185 34.3806 36.3694L25.5861 27.5749C22.9045 29.81 19.4522 31.1562 15.6875 31.1562C7.14435 31.1562 0.21875 24.2307 0.21875 15.6875Z" fill="#B45D35"/>
</svg>
