<svg width="50" height="50" viewBox="0 0 50 50" fill="none" xmlns="http://www.w3.org/2000/svg">
<path d="M41.6843 16.8164L49.4407 24.7754C50.3779 25.7507 50.1104 26.5027 48.8395 26.5027H43.0216V47.2974C43.0216 48.7244 41.9518 50 40.6808 50H30.5835V35.4346C30.5835 34.0076 29.4474 32.7319 28.1764 32.7319H21.8236C20.5526 32.7319 19.4165 34.0076 19.4165 35.4346V50H9.31922C8.04823 50 6.91205 48.7244 6.91205 47.2974V26.5027H1.16054C-0.110439 26.5027 -0.377901 25.7507 0.559287 24.7754L23.2273 1.65281C24.1645 0.677462 25.7692 0.677462 26.7706 1.65281L31.9187 6.83227V2.70264C31.9187 1.27565 33.0549 0 34.3259 0H39.3413C40.6123 0 41.6822 1.27565 41.6822 2.70264L41.6843 16.8164Z" fill="black"/>
</svg>
