<svg width="57" height="57" viewBox="0 0 57 57" fill="none" xmlns="http://www.w3.org/2000/svg">
<g clip-path="url(#clip0_86_80017)">
<path d="M18.9978 19.0032H23.7474C25.059 19.0032 26.1222 17.94 26.1222 16.6284C26.1222 15.3169 25.059 14.2537 23.7474 14.2537H18.9978C17.6863 14.2537 16.623 15.3169 16.623 16.6284C16.6229 17.94 17.6863 19.0032 18.9978 19.0032Z" fill="#B45D35"/>
<path d="M37.9961 26.1277H18.9978C17.6863 26.1277 16.623 27.1909 16.623 28.5024C16.623 29.814 17.6863 30.8772 18.9978 30.8772H37.9963C39.3078 30.8772 40.371 29.814 40.371 28.5024C40.371 27.191 39.3077 26.1277 37.9961 26.1277Z" fill="#B45D35"/>
<path d="M37.9961 38.0017H18.9978C17.6863 38.0017 16.623 39.0649 16.623 40.3765C16.623 41.688 17.6863 42.7512 18.9978 42.7512H37.9963C39.3078 42.7512 40.371 41.688 40.371 40.3765C40.371 39.0649 39.3077 38.0017 37.9961 38.0017Z" fill="#B45D35"/>
<path d="M49.3381 15.1314C49.3352 15.1277 49.3323 15.1241 49.3294 15.1204C49.281 15.0623 49.2302 15.0051 49.1749 14.9497L34.9261 0.700936C34.8708 0.645611 34.8136 0.59485 34.7555 0.546426C34.7519 0.54342 34.7481 0.540637 34.7444 0.537743C34.2574 0.136328 33.683 -0.0267545 33.1271 0.00541662H9.49879C8.18723 0.00541662 7.12402 1.06862 7.12402 2.38018V54.6258C7.12402 55.9373 8.18723 57.0005 9.49879 57.0005H47.4956C48.8071 57.0005 49.8703 55.9373 49.8703 54.6258V16.7488C49.9026 16.1929 49.7396 15.6184 49.3381 15.1314ZM41.7623 14.2542H35.6216V8.11343L41.7623 14.2542ZM11.8737 52.251V4.75494H30.8721V16.629C30.8721 17.9405 31.9353 19.0037 33.2469 19.0037H45.1209V52.251H11.8737Z" fill="#B45D35"/>
</g>
<defs>
<clipPath id="clip0_86_80017">
<rect width="57" height="57" fill="white"/>
</clipPath>
</defs>
</svg>
