<svg width="57" height="57" viewBox="0 0 57 57" fill="none" xmlns="http://www.w3.org/2000/svg">
<path d="M46.3121 14.9626H35.6246C35.4356 14.9626 35.2544 14.8875 35.1208 14.7539C34.9872 14.6203 34.9121 14.4391 34.9121 14.2501V3.5626C34.9121 3.37363 34.9872 3.1924 35.1208 3.05878C35.2544 2.92516 35.4356 2.8501 35.6246 2.8501C35.8136 2.8501 35.9948 2.92516 36.1284 3.05878C36.262 3.1924 36.3371 3.37363 36.3371 3.5626V13.5376H46.3121C46.5011 13.5376 46.6823 13.6127 46.8159 13.7463C46.9495 13.8799 47.0246 14.0611 47.0246 14.2501C47.0246 14.4391 46.9495 14.6203 46.8159 14.7539C46.6823 14.8875 46.5011 14.9626 46.3121 14.9626Z" fill="#B45D35"/>
<path d="M46.3121 22.0634C46.1231 22.0634 45.9419 21.9883 45.8083 21.8547C45.6747 21.7211 45.5996 21.5398 45.5996 21.3509V14.5451L35.3296 4.2751H14.2496C13.4937 4.2751 12.7688 4.57537 12.2344 5.10984C11.6999 5.64432 11.3996 6.36923 11.3996 7.1251V21.1143C11.3996 21.3033 11.3245 21.4845 11.1909 21.6181C11.0573 21.7518 10.8761 21.8268 10.6871 21.8268C10.4981 21.8268 10.3169 21.7518 10.1833 21.6181C10.0497 21.4845 9.97461 21.3033 9.97461 21.1143V7.1251C9.97461 5.9913 10.425 4.90394 11.2267 4.10222C12.0284 3.3005 13.1158 2.8501 14.2496 2.8501H35.6246C35.7182 2.84993 35.811 2.86822 35.8975 2.90392C35.9841 2.93962 36.0628 2.99203 36.1291 3.05815L46.8166 13.7456C46.8827 13.8119 46.9351 13.8906 46.9708 13.9772C47.0065 14.0637 47.0248 14.1565 47.0246 14.2501V21.3509C47.0246 21.4444 47.0062 21.5371 46.9704 21.6235C46.9346 21.71 46.8821 21.7885 46.8159 21.8547C46.7498 21.9209 46.6712 21.9733 46.5848 22.0091C46.4983 22.0449 46.4057 22.0634 46.3121 22.0634Z" fill="#B45D35"/>
<path d="M42.7496 54.1501H14.2496C13.1158 54.1501 12.0284 53.6997 11.2267 52.898C10.425 52.0963 9.97461 51.0089 9.97461 49.8751V39.1876C9.97461 38.9986 10.0497 38.8174 10.1833 38.6838C10.3169 38.5502 10.4981 38.4751 10.6871 38.4751C10.8761 38.4751 11.0573 38.5502 11.1909 38.6838C11.3245 38.8174 11.3996 38.9986 11.3996 39.1876V49.8751C11.3996 50.631 11.6999 51.3559 12.2344 51.8904C12.7688 52.4248 13.4937 52.7251 14.2496 52.7251H42.7496C43.5055 52.7251 44.2304 52.4248 44.7649 51.8904C45.2993 51.3559 45.5996 50.631 45.5996 49.8751V39.1876C45.5996 38.9986 45.6747 38.8174 45.8083 38.6838C45.9419 38.5502 46.1231 38.4751 46.3121 38.4751C46.5011 38.4751 46.6823 38.5502 46.8159 38.6838C46.9495 38.8174 47.0246 38.9986 47.0246 39.1876V49.8751C47.0246 51.0089 46.5742 52.0963 45.7725 52.898C44.9708 53.6997 43.8834 54.1501 42.7496 54.1501Z" fill="#B45D35"/>
<path d="M39.1871 39.9001H17.8121C17.6231 39.9001 17.4419 39.825 17.3083 39.6914C17.1747 39.5578 17.0996 39.3766 17.0996 39.1876C17.0996 38.9986 17.1747 38.8174 17.3083 38.6838C17.4419 38.5502 17.6231 38.4751 17.8121 38.4751H39.1871C39.3761 38.4751 39.5573 38.5502 39.6909 38.6838C39.8245 38.8174 39.8996 38.9986 39.8996 39.1876C39.8996 39.3766 39.8245 39.5578 39.6909 39.6914C39.5573 39.825 39.3761 39.9001 39.1871 39.9001Z" fill="#B45D35"/>
<path d="M28.4996 47.0251H17.8121C17.6231 47.0251 17.4419 46.95 17.3083 46.8164C17.1747 46.6828 17.0996 46.5016 17.0996 46.3126C17.0996 46.1236 17.1747 45.9424 17.3083 45.8088C17.4419 45.6752 17.6231 45.6001 17.8121 45.6001H28.4996C28.6886 45.6001 28.8698 45.6752 29.0034 45.8088C29.137 45.9424 29.2121 46.1236 29.2121 46.3126C29.2121 46.5016 29.137 46.6828 29.0034 46.8164C28.8698 46.95 28.6886 47.0251 28.4996 47.0251Z" fill="#B45D35"/>
<path d="M46.3121 39.9001H10.6871C9.55331 39.9001 8.46595 39.4497 7.66423 38.648C6.86251 37.8463 6.41211 36.7589 6.41211 35.6251V24.6769C6.41211 23.5431 6.86251 22.4557 7.66423 21.654C8.46595 20.8523 9.55331 20.4019 10.6871 20.4019H10.7156L46.3406 20.6384C47.4687 20.6489 48.5471 21.1035 49.3423 21.9037C50.1374 22.704 50.5852 23.7853 50.5885 24.9134V35.6251C50.5885 36.1867 50.4779 36.7427 50.263 37.2614C50.0481 37.7802 49.733 38.2515 49.3359 38.6485C48.9388 39.0455 48.4674 39.3604 47.9485 39.5751C47.4297 39.7899 46.8736 39.9003 46.3121 39.9001ZM10.6871 21.8269C9.93124 21.8269 9.20633 22.1271 8.67185 22.6616C8.13738 23.1961 7.83711 23.921 7.83711 24.6769V35.6251C7.83711 36.381 8.13738 37.1059 8.67185 37.6404C9.20633 38.1749 9.93124 38.4751 10.6871 38.4751H46.3121C47.068 38.4751 47.7929 38.1749 48.3274 37.6404C48.8618 37.1059 49.1621 36.381 49.1621 35.6251V24.9134C49.1599 24.1612 48.8613 23.4401 48.3309 22.9066C47.8006 22.3731 47.0814 22.0702 46.3292 22.0634L10.7042 21.8269H10.6871Z" fill="#B45D35"/>
<path d="M20.6624 33.6301H19.293V26.032H22.4052C23.2925 26.032 23.9503 26.2557 24.3788 26.7032C24.8006 27.1463 25.0315 27.7374 25.0216 28.3491C25.0118 28.9609 24.762 29.5442 24.3261 29.9735C23.8447 30.4106 23.2117 30.6422 22.5619 30.6191H20.6624V33.6301ZM20.6624 29.4449H22.2826C22.7054 29.4449 23.0284 29.3408 23.2516 29.1328C23.3632 29.0264 23.4506 28.8973 23.5082 28.7542C23.5657 28.6112 23.5919 28.4575 23.5851 28.3034C23.5903 28.0064 23.4793 27.719 23.2758 27.5026C23.0697 27.2803 22.6978 27.1691 22.1601 27.1691H20.6624V29.4449Z" fill="#B45D35"/>
<path d="M26.0771 33.6301V26.032H28.8844C29.9199 26.032 30.7511 26.3982 31.3781 27.1307C32.0051 27.8631 32.3186 28.7656 32.3186 29.8382C32.3186 30.9145 31.9956 31.8146 31.3496 32.5385C30.7036 33.2624 29.7798 33.6263 28.578 33.6301H26.0771ZM27.485 32.5115H28.625C28.9192 32.5153 29.2107 32.4557 29.4798 32.3367C29.7488 32.2177 29.989 32.042 30.184 31.8218C30.6105 31.362 30.8238 30.6775 30.8238 29.7683C30.8448 29.0965 30.6484 28.4358 30.2638 27.8845C30.1016 27.6427 29.8813 27.4454 29.6232 27.3107C29.365 27.1761 29.0772 27.1083 28.7861 27.1136H27.4836L27.485 32.5115Z" fill="#B45D35"/>
<path d="M34.9962 33.6301H33.5869V26.032H38.3906V27.2062H34.9962V29.2824H37.6681V30.4224H34.9962V33.6301Z" fill="#B45D35"/>
</svg>
