<svg width="154" height="142" viewBox="0 0 154 142" fill="none" xmlns="http://www.w3.org/2000/svg">
<path d="M0 70.6604C0 61.0849 1.73469 51.9497 5.20408 43.2547C8.67347 34.5597 13.3163 27.0204 19.1327 20.6368C24.949 14.2531 31.9388 9.24528 40.102 5.61321C48.2653 1.98113 56.7857 0.110063 65.6633 0C74.5408 0 83.0102 1.87107 91.0714 5.61321C99.1327 9.35535 106.122 14.3632 112.041 20.6368C117.959 26.9104 122.602 34.4497 125.969 43.2547C129.337 52.0597 131.071 61.195 131.173 70.6604H142.194C144.541 70.6604 146.582 71.3758 148.316 72.8066C150.051 74.2374 151.327 75.9984 152.143 78.0896C152.959 80.1808 153.214 82.3821 152.908 84.6934C152.602 87.0047 151.582 89.0409 149.847 90.8019L127.959 114.41C125.816 116.722 123.265 117.877 120.306 117.877C117.347 117.877 114.745 116.722 112.5 114.41L90.6123 90.8019C88.9796 89.0409 88.0102 87.0047 87.7041 84.6934C87.398 82.3821 87.6021 80.1808 88.3163 78.0896C89.0306 75.9984 90.3061 74.2374 92.1429 72.8066C93.9796 71.3758 96.0714 70.6604 98.4184 70.6604H109.286C109.286 62.1855 107.347 54.316 103.469 47.0519C99.5918 39.7877 94.2857 34.0645 87.551 29.8821C80.8163 25.6997 73.5204 23.6085 65.6633 23.6085C57.8061 23.6085 50.4592 25.6997 43.6225 29.8821C36.7857 34.0645 31.4796 39.7877 27.7041 47.0519C23.9286 54.316 21.9898 62.1855 21.8878 70.6604C21.7857 79.1352 23.7245 87.0597 27.7041 94.434C31.6837 101.808 36.9898 107.531 43.6225 111.604C50.2551 115.676 57.602 117.767 65.6633 117.877C71.1735 117.877 76.5306 116.777 81.7347 114.575L98.1122 132.075C88.1122 138.349 77.2959 141.486 65.6633 141.486C56.6837 141.486 48.1633 139.615 40.102 135.873C32.0408 132.13 25.051 127.123 19.1327 120.849C13.2143 114.575 8.57143 107.036 5.20408 98.2311C1.83674 89.4261 0.102041 80.2358 0 70.6604Z" fill="#274562"/>
</svg>
