<svg width="30" height="30" viewBox="0 0 30 30" fill="none" xmlns="http://www.w3.org/2000/svg">
<path fill-rule="evenodd" clip-rule="evenodd" d="M20.6252 5.59773V5.88122C21.8186 5.99047 23.0021 6.13413 24.1747 6.31122C24.6089 6.37679 25.0415 6.44694 25.4727 6.52162C25.9828 6.60999 26.3248 7.09521 26.2364 7.60538C26.148 8.11555 25.6628 8.45748 25.1526 8.36911C25.0656 8.35404 24.9786 8.33916 24.8914 8.32446L23.6346 24.6626C23.4844 26.6164 21.8552 28.125 19.8957 28.125H10.1046C8.1451 28.125 6.51595 26.6164 6.36566 24.6626L5.10888 8.32446C5.02174 8.33915 4.93467 8.35404 4.84767 8.36911C4.3375 8.45748 3.85228 8.11555 3.76391 7.60538C3.67554 7.09521 4.01747 6.60999 4.52764 6.52162C4.95876 6.44694 5.39143 6.37679 5.8256 6.31122C6.99822 6.13413 8.18175 5.99047 9.37515 5.88122V5.59773C9.37515 3.64214 10.8908 1.97273 12.8944 1.90863C13.5936 1.88627 14.2956 1.875 15.0002 1.875C15.7047 1.875 16.4067 1.88627 17.1059 1.90863C19.1095 1.97273 20.6252 3.64214 20.6252 5.59773ZM12.9544 3.78268C13.6336 3.76095 14.3156 3.75 15.0002 3.75C15.6847 3.75 16.3667 3.76095 17.0459 3.78268C17.9892 3.81285 18.7502 4.60492 18.7502 5.59773V5.73853C17.5097 5.6632 16.2593 5.625 15.0002 5.625C13.741 5.625 12.4906 5.6632 11.2502 5.73853V5.59773C11.2502 4.60492 12.0111 3.81285 12.9544 3.78268ZM12.5109 11.214C12.491 10.6966 12.0555 10.2933 11.5381 10.3132C11.0207 10.3331 10.6174 10.7686 10.6373 11.286L11.07 22.536C11.0899 23.0534 11.5254 23.4567 12.0428 23.4368C12.5602 23.4169 12.9635 22.9814 12.9436 22.464L12.5109 11.214ZM19.3619 11.286C19.3818 10.7686 18.9785 10.3331 18.4611 10.3132C17.9437 10.2933 17.5082 10.6966 17.4883 11.214L17.0556 22.464C17.0357 22.9814 17.439 23.4169 17.9563 23.4368C18.4737 23.4567 18.9093 23.0534 18.9292 22.536L19.3619 11.286Z" fill="black"/>
</svg>
