<svg width="198" height="152" viewBox="0 0 198 152" fill="none" xmlns="http://www.w3.org/2000/svg">
<path d="M80.0307 117.846H117.546M117.546 117.846V5H5V117.846H33.1365M117.546 117.846V42.6155H164.44L181.603 59.8246C185.086 63.3205 187.848 67.4701 189.731 72.0365C191.613 76.6028 192.581 81.4964 192.577 86.4376V117.846H173.819M117.546 117.846H126.925" stroke="#274562" stroke-width="10" stroke-linecap="round" stroke-linejoin="round"/>
<path d="M56.5836 146.058C69.533 146.058 80.0306 135.533 80.0306 122.549C80.0306 109.565 69.533 99.0391 56.5836 99.0391C43.6341 99.0391 33.1365 109.565 33.1365 122.549C33.1365 135.533 43.6341 146.058 56.5836 146.058Z" stroke="#274562" stroke-width="10" stroke-linecap="round" stroke-linejoin="round"/>
<path d="M150.372 146.058C163.321 146.058 173.819 135.533 173.819 122.549C173.819 109.565 163.321 99.0391 150.372 99.0391C137.422 99.0391 126.925 109.565 126.925 122.549C126.925 135.533 137.422 146.058 150.372 146.058Z" stroke="#274562" stroke-width="10" stroke-linecap="round" stroke-linejoin="round"/>
</svg>
