<svg width="57" height="57" viewBox="0 0 57 57" fill="none" xmlns="http://www.w3.org/2000/svg">
<path d="M5.9834 13.8258C5.9834 18.1668 9.35245 21.7332 13.613 22.0539C12.2589 19.6139 11.4863 16.8085 11.4863 13.8258C11.4863 10.843 12.2589 8.03745 13.613 5.59766C9.35245 5.91829 5.9834 9.48471 5.9834 13.8258Z" fill="#B45D35"/>
<path d="M0 41.8211C0 43.3406 1.23191 44.5726 2.75144 44.5726H2.93946C5.06761 37.1934 10.3119 31.1231 17.1486 27.8834C16.2003 27.6858 15.2259 27.5828 14.2382 27.5828C6.3872 27.5828 0 33.97 0 41.8211Z" fill="#B45D35"/>
<path d="M51.0163 13.8258C51.0163 9.48471 47.6472 5.91829 43.3867 5.59766C44.7408 8.03764 45.5134 10.843 45.5134 13.8258C45.5134 16.8085 44.7408 19.6141 43.3867 22.0539C47.6472 21.7332 51.0163 18.1668 51.0163 13.8258Z" fill="#B45D35"/>
<path d="M54.2488 44.5726C55.7683 44.5726 57.0002 43.3406 57.0002 41.8211C57.0002 33.97 50.613 27.5828 42.762 27.5828C41.7743 27.5828 40.7999 27.6857 39.8516 27.8834C46.6882 31.1231 51.9326 37.1936 54.0608 44.5726H54.2488Z" fill="#B45D35"/>
<path d="M28.5004 25.3358C32.3695 25.3358 35.7962 23.4148 37.8841 20.4788C39.2212 18.5987 40.0108 16.3032 40.0108 13.8256C40.0108 11.3481 39.2212 9.05261 37.8841 7.17246C35.7962 4.23649 32.3695 2.31543 28.5004 2.31543C22.1536 2.31543 16.9902 7.47879 16.9902 13.8256C16.9902 20.1725 22.1536 25.3358 28.5004 25.3358Z" fill="#B45D35"/>
<path d="M49.5941 51.933C49.5941 49.3454 49.1245 46.8654 48.2681 44.5725C45.7996 37.9645 40.1082 32.9158 33.1157 31.3487C31.6295 31.0156 30.0851 30.8386 28.4997 30.8386C16.8682 30.8386 7.40527 40.3016 7.40527 51.933C7.40527 53.4525 8.63719 54.6845 10.1567 54.6845H46.8426C48.3622 54.6845 49.5941 53.4525 49.5941 51.933Z" fill="#B45D35"/>
</svg>
