<svg width="82" height="82" viewBox="0 0 82 82" fill="none" xmlns="http://www.w3.org/2000/svg">
<path d="M52.4 42.65C60.8297 45.1145 68.2337 50.2444 73.5025 57.271C78.7713 64.2976 81.6212 72.8424 81.625 81.625H0.375C0.376801 72.8419 3.22588 64.2962 8.495 57.2692C13.7641 50.2422 21.1693 45.1127 29.6 42.65L41 59.75L52.4 42.65ZM61.3125 20.6875C61.3125 26.0747 59.1724 31.2413 55.3631 35.0506C51.5538 38.8599 46.3872 41 41 41C35.6128 41 30.4462 38.8599 26.6369 35.0506C22.8276 31.2413 20.6875 26.0747 20.6875 20.6875C20.6875 15.3003 22.8276 10.1337 26.6369 6.32439C30.4462 2.51506 35.6128 0.375 41 0.375C46.3872 0.375 51.5538 2.51506 55.3631 6.32439C59.1724 10.1337 61.3125 15.3003 61.3125 20.6875Z" fill="#B45D35"/>
</svg>
