<svg width="57" height="57" viewBox="0 0 57 57" fill="none" xmlns="http://www.w3.org/2000/svg">
<path d="M28.5 28.5C32.435 28.5 35.625 25.31 35.625 21.375C35.625 17.44 32.435 14.25 28.5 14.25C24.565 14.25 21.375 17.44 21.375 21.375C21.375 25.31 24.565 28.5 28.5 28.5Z" stroke="white" stroke-width="1.5"/>
<path d="M42.6768 47.5C42.2989 40.6327 40.1963 35.625 28.4999 35.625C16.8038 35.625 14.7012 40.6327 14.3232 47.5" stroke="white" stroke-width="1.5" stroke-linecap="round"/>
<path d="M16.625 7.92732C20.1183 5.90655 24.1742 4.75 28.5 4.75C41.6166 4.75 52.25 15.3832 52.25 28.5C52.25 41.6166 41.6166 52.25 28.5 52.25C15.3832 52.25 4.75 41.6166 4.75 28.5C4.75 24.1742 5.90655 20.1183 7.92732 16.625" stroke="white" stroke-width="1.5" stroke-linecap="round"/>
</svg>
