<svg width="157" height="163" viewBox="0 0 157 163" fill="none" xmlns="http://www.w3.org/2000/svg">
<path d="M128.595 140.062C117.126 124.323 98.955 114.156 78.5 114.156C58.045 114.156 39.8736 124.323 28.4046 140.062M128.595 140.062C144.106 125.706 153.875 104.79 153.875 81.5C153.875 38.2147 120.128 3.125 78.5 3.125C36.8715 3.125 3.125 38.2147 3.125 81.5C3.125 104.79 12.8944 125.706 28.4046 140.062M128.595 140.062C115.279 152.387 97.7304 159.875 78.5 159.875C59.2696 159.875 41.7212 152.387 28.4046 140.062M103.625 61.9062C103.625 76.3347 92.3762 88.0312 78.5 88.0312C64.6238 88.0312 53.375 76.3347 53.375 61.9062C53.375 47.4778 64.6238 35.7812 78.5 35.7812C92.3762 35.7812 103.625 47.4778 103.625 61.9062Z" stroke="#F65009" stroke-width="6" stroke-linecap="round" stroke-linejoin="round"/>
</svg>
