<svg width="154" height="166" viewBox="0 0 154 166" fill="none" xmlns="http://www.w3.org/2000/svg">
<path fill-rule="evenodd" clip-rule="evenodd" d="M56.3903 0C54.2537 0 52.2047 0.790651 50.694 2.19793L2.35945 47.2237C0.848755 48.631 0 50.5397 0 52.53V142.581C0 155.015 10.8201 165.094 24.1673 165.094H56.3903C60.8394 165.094 64.446 161.735 64.446 157.59C64.446 153.445 60.8394 150.086 56.3903 150.086H24.1673C19.7182 150.086 16.1115 146.726 16.1115 142.581V60.0343H56.3903C60.8394 60.0343 64.446 56.6745 64.446 52.53V15.0086H120.836C125.285 15.0086 128.892 18.3684 128.892 22.5129V60.0343C128.892 64.1788 132.499 67.5386 136.948 67.5386C141.397 67.5386 145.004 64.1788 145.004 60.0343V22.5129C145.004 10.0794 134.184 0 120.836 0H56.3903ZM48.3345 45.0257H27.504L48.3345 25.6212V45.0257ZM80.1708 87.7551C78.8094 83.8094 74.2724 81.6392 70.0367 82.9074C65.801 84.1756 63.4713 88.402 64.8327 92.3478L82.9581 144.878C84.0287 147.982 87.1278 150.086 90.6272 150.086C94.1266 150.086 97.2257 147.982 98.2963 144.878L108.753 114.575L119.209 144.878C120.28 147.982 123.379 150.086 126.878 150.086C130.378 150.086 133.477 147.982 134.547 144.878L152.673 92.3478C154.034 88.402 151.704 84.1756 147.469 82.9074C143.233 81.6392 138.696 83.8094 137.334 87.7551L126.878 118.058L116.422 87.7551C115.351 84.6514 112.252 82.5472 108.753 82.5472C105.253 82.5472 102.154 84.6514 101.084 87.7551L90.6272 118.058L80.1708 87.7551Z" fill="#CC7139"/>
</svg>
